<svg xmlns="http://www.w3.org/2000/svg" viewBox="0 0 1000 400"><defs><style>.a{fill:#fff;}</style></defs><path class="a" d="M167,158.42c23.93,0,39.46,13.28,40.14,32.23H187.31c-1.17-10-8.49-16.21-20.31-16.21-11.42,0-19,5.56-19,13.77,0,6.44,4.69,10.84,15.82,13.38l16.7,3.81c21,4.88,29,13.08,29,27.93,0,18.75-17.48,31.64-41.7,31.64-25.68,0-41.11-12.6-43.06-32.13h20.9c1.95,10.74,9.27,16,22.16,16,12.7,0,20.51-5.27,20.51-13.67,0-6.64-3.81-10.55-15-13.09l-16.7-3.9c-19.53-4.49-29.2-13.87-29.2-28.81C127.35,171,143.37,158.42,167,158.42Z"/><path class="a" d="M263.13,136v24.32h19.54V177H263.13v56.64c0,8.88,3.91,12.89,12.5,12.89a46.63,46.63,0,0,0,6.94-.49v16.7a57.79,57.79,0,0,1-11.72,1c-20.8,0-28.91-7.91-28.91-27.74V177H227v-16.7h14.94V136Z"/><path class="a" d="M310,160.28h20.12v17.48h.49c3.41-12,12.59-19.14,24.7-19.14a38.75,38.75,0,0,1,7.23.78V179c-1.66-.69-5.37-1.17-9.47-1.17-13.58,0-22,9.08-22,23.63V263H310Z"/><path class="a" d="M387.24,300.81V283.72a39,39,0,0,0,6.83.39c9.77,0,15-4.11,18.26-14.65,0-.2,1.86-6.25,1.86-6.35L377.08,160.28h22.85l26,83.59h.39l26-83.59h22.26l-38.48,108.1c-8.78,24.91-18.94,32.91-40.23,32.91A82.08,82.08,0,0,1,387.24,300.81Z"/><path class="a" d="M535.42,225.22,512.67,263H489.81l33.89-51.27-33.4-51.46h23.64l22.46,37.21h.39L559,160.28H582.2l-33.69,50.78L581.81,263H558.56l-22.65-37.79Z"/><path class="a" d="M732,192.6c0,44.83-25.49,72.76-66,72.76s-66-27.93-66-72.76,25.39-72.85,66-72.85S732,147.78,732,192.6Zm-109.67,0c0,32.82,16.9,53.52,43.66,53.52s43.55-20.7,43.55-53.52S692.78,139,666,139,622.37,159.69,622.37,192.6Z"/><path class="a" d="M777.78,224.34c2,14,15.24,22.36,34,22.36,17.87,0,30.66-9.18,30.66-21.77,0-10.94-7.42-17.78-26.27-21.88l-15.33-3.22c-28.22-6-41-19-41-39.36,0-24.12,21.2-40.72,51.18-40.72s50.29,16.9,51,41.5H840.77c-1.37-14.16-13-22.85-30.08-22.85-16.5,0-28.61,8-28.61,20.9,0,10.26,7.23,17.09,25.49,21L823,183.52c29.49,6.25,41.6,18.07,41.6,38.57,0,26.57-20.9,43.27-53.71,43.27-31.84,0-53-15.92-54.4-41Z"/></svg>