<svg xmlns="http://www.w3.org/2000/svg" xmlns:xlink="http://www.w3.org/1999/xlink" viewBox="0 0 1000 1000"><defs><style>.a{fill:url(#a);}.b{fill:#fff;}</style><linearGradient id="a" x1="185.93" y1="-43.98" x2="814.07" y2="1043.98" gradientUnits="userSpaceOnUse"><stop offset="0" stop-color="#4c4b4c"/><stop offset="0.4" stop-color="#181818"/><stop offset="0.6" stop-color="#181818"/><stop offset="1" stop-color="#4c4b4c"/></linearGradient></defs><rect class="a" width="1000" height="1000" rx="150"/><path class="b" d="M513.43,593.42c0,112.06-63.72,181.89-165,181.89-101.56,0-165-69.83-165-181.89s63.48-182.13,165-182.13C449.71,411.29,513.43,481.36,513.43,593.42Zm-274.17,0c0,82,42.23,133.79,109.13,133.79s108.89-51.76,108.89-133.79c0-82.27-42-134-108.89-134S239.26,511.15,239.26,593.42Z"/><path class="b" d="M602.78,672.77c4.89,34.91,38.09,55.91,85,55.91,44.68,0,76.66-22.95,76.66-54.45,0-27.34-18.55-44.43-65.67-54.69l-38.33-8c-70.56-14.89-102.54-47.61-102.54-98.39,0-60.3,53-101.81,127.93-101.81,74.71,0,125.73,42.24,127.44,103.76h-53c-3.41-35.4-32.47-57.13-75.19-57.13-41.26,0-71.53,20-71.53,52.25,0,25.63,18.06,42.72,63.72,52.49l38.57,8.06c73.73,15.62,104,45.16,104,96.43,0,66.41-52.24,108.16-134.27,108.16-79.59,0-132.57-39.8-136-102.54Z"/><path class="b" d="M310.11,258.42c23.92,0,39.45,13.28,40.13,32.23H330.42c-1.17-10-8.5-16.21-20.31-16.21-11.43,0-19.05,5.56-19.05,13.77,0,6.44,4.69,10.84,15.82,13.38l16.7,3.81c21,4.88,29,13.08,29,27.93,0,18.75-17.48,31.64-41.7,31.64-25.68,0-41.11-12.6-43.07-32.13h20.9c1.95,10.74,9.28,16,22.17,16,12.69,0,20.51-5.27,20.51-13.67,0-6.64-3.81-10.55-15-13.09l-16.7-3.9c-19.53-4.49-29.2-13.87-29.2-28.81C270.46,271,286.47,258.42,310.11,258.42Z"/><path class="b" d="M406.24,236v24.32h19.53V277H406.24v56.64c0,8.88,3.91,12.89,12.5,12.89a46.38,46.38,0,0,0,6.93-.49v16.7a57.68,57.68,0,0,1-11.71,1c-20.81,0-28.91-7.91-28.91-27.74V277H370.11v-16.7h14.94V236Z"/><path class="b" d="M453.06,260.28h20.11v17.48h.49c3.42-12,12.6-19.14,24.71-19.14a38.85,38.85,0,0,1,7.23.78V279c-1.66-.69-5.38-1.17-9.48-1.17-13.57,0-22,9.08-22,23.63V363H453.06Z"/><path class="b" d="M530.34,400.81V383.72a39.1,39.1,0,0,0,6.84.39c9.76,0,15-4.11,18.26-14.65,0-.2,1.85-6.25,1.85-6.35l-37.1-102.83H543l26,83.59h.39l26-83.59h22.27l-38.48,108.1c-8.79,24.91-18.95,32.91-40.23,32.91A82.28,82.28,0,0,1,530.34,400.81Z"/><path class="b" d="M678.53,325.22,655.77,363H632.92l33.89-51.27-33.4-51.46H657l22.46,37.21h.39l22.17-37.21H725.3l-33.69,50.78L724.91,363H701.67L679,325.22Z"/></svg>